# Wavefront OBJ file automatically generated by Tiled2Unity

# Vertices (Count = 240)
v 0 -16 0
v -16 -16 0
v -16 0 0
v 0 0 0
v -32 -16 0
v -32 0 0
v -48 -16 0
v -48 0 0
v -64 -16 0
v -64 0 0
v -80 -16 0
v -80 0 0
v -96 -16 0
v -96 0 0
v -112 -16 0
v -112 0 0
v -128 -16 0
v -128 0 0
v -144 -16 0
v -144 0 0
v -160 -16 0
v -160 0 0
v -176 -16 0
v -176 0 0
v -192 -16 0
v -192 0 0
v -208 -16 0
v -208 0 0
v -224 -16 0
v -224 0 0
v -16 -64 0
v -32 -64 0
v -32 -48 0
v -16 -48 0
v -48 -64 0
v -48 -48 0
v -64 -64 0
v -64 -48 0
v -80 -64 0
v -80 -48 0
v -96 -64 0
v -96 -48 0
v -112 -64 0
v -112 -48 0
v -128 -64 0
v -128 -48 0
v -144 -64 0
v -144 -48 0
v -160 -64 0
v -160 -48 0
v -176 -64 0
v -176 -48 0
v -192 -64 0
v -192 -48 0
v -208 -64 0
v -208 -48 0
v -16 -80 0
v -32 -80 0
v -48 -80 0
v -64 -80 0
v -80 -80 0
v -96 -80 0
v -112 -80 0
v -128 -80 0
v -144 -80 0
v -160 -80 0
v -176 -80 0
v -192 -80 0
v -208 -80 0
v -16 -96 0
v -32 -96 0
v -48 -96 0
v -64 -96 0
v -80 -96 0
v -96 -96 0
v -112 -96 0
v -128 -96 0
v -144 -96 0
v -160 -96 0
v -176 -96 0
v -192 -96 0
v -208 -96 0
v -16 -112 0
v -32 -112 0
v -48 -112 0
v -64 -112 0
v -80 -112 0
v -96 -112 0
v -112 -112 0
v -128 -112 0
v -144 -112 0
v -160 -112 0
v -176 -112 0
v -192 -112 0
v -208 -112 0
v -16 -128 0
v -32 -128 0
v -48 -128 0
v -64 -128 0
v -80 -128 0
v -96 -128 0
v -112 -128 0
v -128 -128 0
v -144 -128 0
v -160 -128 0
v -176 -128 0
v -192 -128 0
v -208 -128 0
v -16 -144 0
v -32 -144 0
v -48 -144 0
v -64 -144 0
v -80 -144 0
v -96 -144 0
v -112 -144 0
v -128 -144 0
v -144 -144 0
v -160 -144 0
v -176 -144 0
v -192 -144 0
v -208 -144 0
v -16 -160 0
v -32 -160 0
v -48 -160 0
v -64 -160 0
v -80 -160 0
v -96 -160 0
v -112 -160 0
v -128 -160 0
v -144 -160 0
v -160 -160 0
v -176 -160 0
v -192 -160 0
v -208 -160 0
v -16 -176 0
v -32 -176 0
v -48 -176 0
v -64 -176 0
v -80 -176 0
v -96 -176 0
v -112 -176 0
v -128 -176 0
v -144 -176 0
v -160 -176 0
v -176 -176 0
v -192 -176 0
v -208 -176 0
v -16 -192 0
v -32 -192 0
v -48 -192 0
v -64 -192 0
v -80 -192 0
v -96 -192 0
v -112 -192 0
v -128 -192 0
v -144 -192 0
v -160 -192 0
v -176 -192 0
v -192 -192 0
v -208 -192 0
v -16 -208 0
v -32 -208 0
v -48 -208 0
v -64 -208 0
v -80 -208 0
v -96 -208 0
v -112 -208 0
v -128 -208 0
v -144 -208 0
v -160 -208 0
v -176 -208 0
v -192 -208 0
v -208 -208 0
v -16 -224 0
v -32 -224 0
v -48 -224 0
v -64 -224 0
v -80 -224 0
v -96 -224 0
v -112 -224 0
v -128 -224 0
v -144 -224 0
v -160 -224 0
v -176 -224 0
v -192 -224 0
v -208 -224 0
v -80 -240 0
v -96 -240 0
v -112 -240 0
v -128 -240 0
v -144 -240 0
v 0 -32 0
v -16 -32 0
v -32 -32 0
v -48 -32 0
v -64 -32 0
v -80 -32 0
v -96 -32 0
v -112 -32 0
v -128 -32 0
v -144 -32 0
v -160 -32 0
v -176 -32 0
v -192 -32 0
v -208 -32 0
v -224 -32 0
v 0 -48 0
v -224 -48 0
v 0 -64 0
v -224 -64 0
v 0 -80 0
v -224 -80 0
v 0 -96 0
v -224 -96 0
v 0 -112 0
v -224 -112 0
v 0 -128 0
v -224 -128 0
v 0 -144 0
v -224 -144 0
v 0 -160 0
v -224 -160 0
v 0 -176 0
v -224 -176 0
v 0 -192 0
v -224 -192 0
v 0 -208 0
v -224 -208 0
v 0 -224 0
v -224 -224 0
v 0 -240 0
v -16 -240 0
v -32 -240 0
v -48 -240 0
v -64 -240 0
v -160 -240 0
v -176 -240 0
v -192 -240 0
v -208 -240 0
v -224 -240 0

# Texture cooridinates (Count = 284)
vt 0.1703348 0.6317219
vt 0.180729 0.6317219
vt 0.180729 0.6378295
vt 0.1703348 0.6378295
vt 0.1916114 0.6317219
vt 0.2020056 0.6317219
vt 0.2020056 0.6378295
vt 0.1916114 0.6378295
vt 0.2022497 0.6317219
vt 0.2126439 0.6317219
vt 0.2126439 0.6378295
vt 0.2022497 0.6378295
vt 0.8618242 0.6444254
vt 0.8722184 0.6444254
vt 0.8722184 0.650533
vt 0.8618242 0.650533
vt 0.8724625 0.6444254
vt 0.8828567 0.6444254
vt 0.8828567 0.650533
vt 0.8724625 0.650533
vt 0.8831008 0.6444254
vt 0.893495 0.6444254
vt 0.893495 0.650533
vt 0.8831008 0.650533
vt 0.8618242 0.6380737
vt 0.8722184 0.6380737
vt 0.8722184 0.6441813
vt 0.8618242 0.6441813
vt 0.8724625 0.6380737
vt 0.8828567 0.6380737
vt 0.8828567 0.6441813
vt 0.8724625 0.6441813
vt 0.8831008 0.6380737
vt 0.893495 0.6380737
vt 0.893495 0.6441813
vt 0.8831008 0.6441813
vt 0.8618242 0.6317219
vt 0.8722184 0.6317219
vt 0.8722184 0.6378295
vt 0.8618242 0.6378295
vt 0.8724625 0.6317219
vt 0.8828567 0.6317219
vt 0.8828567 0.6378295
vt 0.8724625 0.6378295
vt 0.8831008 0.6317219
vt 0.893495 0.6317219
vt 0.893495 0.6378295
vt 0.8831008 0.6378295
vt 0.1596965 0.6317219
vt 0.1700907 0.6317219
vt 0.1700907 0.6378295
vt 0.1596965 0.6378295
vt 0.1809731 0.6317219
vt 0.1913673 0.6317219
vt 0.1913673 0.6378295
vt 0.1809731 0.6378295
vt 0.1596965 0.6253701
vt 0.1700907 0.6253701
vt 0.1700907 0.6314778
vt 0.1596965 0.6314778
vt 0.1703348 0.6253701
vt 0.180729 0.6253701
vt 0.180729 0.6314778
vt 0.1703348 0.6314778
vt 0.1809731 0.6253701
vt 0.1913673 0.6253701
vt 0.1913673 0.6314778
vt 0.1809731 0.6314778
vt 0.8724625 0.6698322
vt 0.8828567 0.6698322
vt 0.8828567 0.6759399
vt 0.8724625 0.6759399
vt 0.8831008 0.6698322
vt 0.893495 0.6698322
vt 0.893495 0.6759399
vt 0.8831008 0.6759399
vt 0.9043774 0.606315
vt 0.9147716 0.606315
vt 0.9147716 0.6124226
vt 0.9043774 0.6124226
vt 0.9150157 0.606315
vt 0.9254099 0.606315
vt 0.9254099 0.6124226
vt 0.9150157 0.6124226
vt 0.8937391 0.5936115
vt 0.9041333 0.5936115
vt 0.9041333 0.5997192
vt 0.8937391 0.5997192
vt 0.9469306 0.606315
vt 0.9573247 0.606315
vt 0.9573247 0.6124226
vt 0.9469306 0.6124226
vt 0.9575689 0.606315
vt 0.967963 0.606315
vt 0.967963 0.6124226
vt 0.9575689 0.6124226
vt 0.9682072 0.606315
vt 0.9786013 0.606315
vt 0.9786013 0.6124226
vt 0.9682072 0.6124226
vt 0.819271 0.8222737
vt 0.8296652 0.8222737
vt 0.8296652 0.8283813
vt 0.819271 0.8283813
vt 0.8724625 0.6634805
vt 0.8828567 0.6634805
vt 0.8828567 0.6695881
vt 0.8724625 0.6695881
vt 0.8831008 0.6634805
vt 0.893495 0.6634805
vt 0.893495 0.6695881
vt 0.8831008 0.6695881
vt 0.9043774 0.5999633
vt 0.9147716 0.5999633
vt 0.9147716 0.6060709
vt 0.9043774 0.6060709
vt 0.9150157 0.5999633
vt 0.9254099 0.5999633
vt 0.9254099 0.6060709
vt 0.9150157 0.6060709
vt 0.8937391 0.5872598
vt 0.9041333 0.5872598
vt 0.9041333 0.5933674
vt 0.8937391 0.5933674
vt 0.9469306 0.5999633
vt 0.9573247 0.5999633
vt 0.9573247 0.6060709
vt 0.9469306 0.6060709
vt 0.9575689 0.5999633
vt 0.967963 0.5999633
vt 0.967963 0.6060709
vt 0.9575689 0.6060709
vt 0.9682072 0.5999633
vt 0.9786013 0.5999633
vt 0.9786013 0.6060709
vt 0.9682072 0.6060709
vt 0.819271 0.815922
vt 0.8296652 0.815922
vt 0.8296652 0.8220296
vt 0.819271 0.8220296
vt 0.8618242 0.5237426
vt 0.8722184 0.5237426
vt 0.8722184 0.5298501
vt 0.8618242 0.5298501
vt 0.9041333 0.5298501
vt 0.8937391 0.5298501
vt 0.8937391 0.5237426
vt 0.9041333 0.5237426
vt 0.8831008 0.5173908
vt 0.893495 0.5173908
vt 0.893495 0.5234984
vt 0.8831008 0.5234984
vt 0.9150157 0.6698322
vt 0.9254099 0.6698322
vt 0.9254099 0.6759399
vt 0.9150157 0.6759399
vt 0.925654 0.6698322
vt 0.9360482 0.6698322
vt 0.9360482 0.6759399
vt 0.925654 0.6759399
vt 0.8937391 0.5173908
vt 0.9041333 0.5173908
vt 0.9041333 0.5234984
vt 0.8937391 0.5234984
vt 0.8724625 0.5237426
vt 0.8828567 0.5237426
vt 0.8828567 0.5298501
vt 0.8724625 0.5298501
vt 0.9150157 0.6634805
vt 0.9254099 0.6634805
vt 0.9254099 0.6695881
vt 0.9150157 0.6695881
vt 0.925654 0.6634805
vt 0.9360482 0.6634805
vt 0.9360482 0.6695881
vt 0.925654 0.6695881
vt 0.9150157 0.6571288
vt 0.9254099 0.6571288
vt 0.9254099 0.6632364
vt 0.9150157 0.6632364
vt 0.925654 0.6571288
vt 0.9360482 0.6571288
vt 0.9360482 0.6632364
vt 0.925654 0.6632364
vt 0.9362923 0.5491495
vt 0.9466864 0.5491495
vt 0.9466864 0.5552571
vt 0.9362923 0.5552571
vt 0.9469306 0.5491495
vt 0.9573247 0.5491495
vt 0.9573247 0.5552571
vt 0.9469306 0.5552571
vt 0.9362923 0.5427977
vt 0.9466864 0.5427977
vt 0.9466864 0.5489053
vt 0.9362923 0.5489053
vt 0.9469306 0.5427977
vt 0.9573247 0.5427977
vt 0.9573247 0.5489053
vt 0.9469306 0.5489053
vt 0.4707883 0.04557663
vt 0.4707883 0.06048399
vt 0.460081 0.06048399
vt 0.460081 0.04557663
vt 0.4707883 0.06072813
vt 0.4707883 0.07563549
vt 0.460081 0.07563549
vt 0.460081 0.06072813
vt 0.405324 0.04557663
vt 0.4160312 0.04557663
vt 0.4160312 0.06048399
vt 0.405324 0.06048399
vt 0.4162754 0.04557663
vt 0.4269826 0.04557663
vt 0.4269826 0.06048399
vt 0.4162754 0.06048399
vt 0.4817397 0.04557663
vt 0.4817397 0.06048399
vt 0.4710324 0.06048399
vt 0.4710324 0.04557663
vt 0.4817397 0.06072813
vt 0.4817397 0.07563549
vt 0.4710324 0.07563549
vt 0.4710324 0.06072813
vt 0.405324 0.03042507
vt 0.4160312 0.03042507
vt 0.4160312 0.04533249
vt 0.405324 0.04533249
vt 0.4162754 0.03042507
vt 0.4269826 0.03042507
vt 0.4269826 0.04533249
vt 0.4162754 0.04533249
vt 0.4272268 0.09103113
vt 0.437934 0.09103113
vt 0.437934 0.1059386
vt 0.4272268 0.1059386
vt 0.4929352 0.1213342
vt 0.5036425 0.1213342
vt 0.5036425 0.1362416
vt 0.4929352 0.1362416
vt 0.5038866 0.1213342
vt 0.5145939 0.1213342
vt 0.5145939 0.1362416
vt 0.5038866 0.1362416
vt 0.4929352 0.1061827
vt 0.5036425 0.1061827
vt 0.5036425 0.1210901
vt 0.4929352 0.1210901
vt 0.5038866 0.1061827
vt 0.5145939 0.1061827
vt 0.5145939 0.1210901
vt 0.5038866 0.1210901
vt 0.7873561 0.6634805
vt 0.7977503 0.6634805
vt 0.7977503 0.6695881
vt 0.7873561 0.6695881
vt 0.7979944 0.6634805
vt 0.8083886 0.6634805
vt 0.8083886 0.6695881
vt 0.7979944 0.6695881
vt 0.7873561 0.6571288
vt 0.7977503 0.6571288
vt 0.7977503 0.6632364
vt 0.7873561 0.6632364
vt 0.7979944 0.6571288
vt 0.8083886 0.6571288
vt 0.8083886 0.6632364
vt 0.7979944 0.6632364
vt 0.8831008 0.5682046
vt 0.893495 0.5682046
vt 0.893495 0.5743122
vt 0.8831008 0.5743122
vt 0.8937391 0.5618529
vt 0.9041333 0.5618529
vt 0.9041333 0.5679605
vt 0.8937391 0.5679605
vt 0.8618242 0.5300943
vt 0.8722184 0.5300943
vt 0.8722184 0.5362018
vt 0.8618242 0.5362018
vt 0.4272268 0.1061827
vt 0.437934 0.1061827
vt 0.437934 0.1210901
vt 0.4272268 0.1210901

# Normal
vn 0 0 -1

# Groups (Count = 7)

g mesh_0001
f 1/1/1 2/2/1 3/3/1 4/4/1
f 2/1/1 5/2/1 6/3/1 3/4/1
f 5/1/1 7/2/1 8/3/1 6/4/1
f 7/1/1 9/2/1 10/3/1 8/4/1
f 9/1/1 11/2/1 12/3/1 10/4/1
f 11/1/1 13/2/1 14/3/1 12/4/1
f 13/1/1 15/2/1 16/3/1 14/4/1
f 15/1/1 17/2/1 18/3/1 16/4/1
f 17/1/1 19/2/1 20/3/1 18/4/1
f 19/1/1 21/2/1 22/3/1 20/4/1
f 21/1/1 23/2/1 24/3/1 22/4/1
f 23/1/1 25/2/1 26/3/1 24/4/1
f 25/1/1 27/2/1 28/3/1 26/4/1
f 27/1/1 29/2/1 30/3/1 28/4/1
f 31/1/1 32/2/1 33/3/1 34/4/1
f 32/1/1 35/2/1 36/3/1 33/4/1
f 35/1/1 37/2/1 38/3/1 36/4/1
f 37/1/1 39/2/1 40/3/1 38/4/1
f 39/1/1 41/2/1 42/3/1 40/4/1
f 41/1/1 43/2/1 44/3/1 42/4/1
f 43/1/1 45/2/1 46/3/1 44/4/1
f 45/1/1 47/2/1 48/3/1 46/4/1
f 47/1/1 49/2/1 50/3/1 48/4/1
f 49/1/1 51/2/1 52/3/1 50/4/1
f 51/1/1 53/2/1 54/3/1 52/4/1
f 53/1/1 55/2/1 56/3/1 54/4/1
f 57/1/1 58/2/1 32/3/1 31/4/1
f 58/1/1 59/2/1 35/3/1 32/4/1
f 59/1/1 60/2/1 37/3/1 35/4/1
f 60/1/1 61/2/1 39/3/1 37/4/1
f 61/1/1 62/2/1 41/3/1 39/4/1
f 62/1/1 63/2/1 43/3/1 41/4/1
f 63/1/1 64/2/1 45/3/1 43/4/1
f 64/1/1 65/2/1 47/3/1 45/4/1
f 65/1/1 66/2/1 49/3/1 47/4/1
f 66/1/1 67/2/1 51/3/1 49/4/1
f 67/1/1 68/2/1 53/3/1 51/4/1
f 68/1/1 69/2/1 55/3/1 53/4/1
f 70/1/1 71/2/1 58/3/1 57/4/1
f 71/1/1 72/2/1 59/3/1 58/4/1
f 72/1/1 73/2/1 60/3/1 59/4/1
f 73/1/1 74/2/1 61/3/1 60/4/1
f 74/1/1 75/2/1 62/3/1 61/4/1
f 75/1/1 76/2/1 63/3/1 62/4/1
f 76/1/1 77/2/1 64/3/1 63/4/1
f 77/1/1 78/2/1 65/3/1 64/4/1
f 78/1/1 79/2/1 66/3/1 65/4/1
f 79/1/1 80/2/1 67/3/1 66/4/1
f 80/1/1 81/2/1 68/3/1 67/4/1
f 81/1/1 82/2/1 69/3/1 68/4/1
f 83/1/1 84/2/1 71/3/1 70/4/1
f 84/1/1 85/2/1 72/3/1 71/4/1
f 85/1/1 86/2/1 73/3/1 72/4/1
f 86/1/1 87/2/1 74/3/1 73/4/1
f 87/1/1 88/2/1 75/3/1 74/4/1
f 88/1/1 89/2/1 76/3/1 75/4/1
f 89/1/1 90/2/1 77/3/1 76/4/1
f 90/1/1 91/2/1 78/3/1 77/4/1
f 91/1/1 92/2/1 79/3/1 78/4/1
f 92/1/1 93/2/1 80/3/1 79/4/1
f 93/1/1 94/2/1 81/3/1 80/4/1
f 94/1/1 95/2/1 82/3/1 81/4/1
f 96/1/1 97/2/1 84/3/1 83/4/1
f 97/1/1 98/2/1 85/3/1 84/4/1
f 98/1/1 99/2/1 86/3/1 85/4/1
f 99/1/1 100/2/1 87/3/1 86/4/1
f 100/1/1 101/2/1 88/3/1 87/4/1
f 101/1/1 102/2/1 89/3/1 88/4/1
f 102/1/1 103/2/1 90/3/1 89/4/1
f 103/1/1 104/2/1 91/3/1 90/4/1
f 104/1/1 105/2/1 92/3/1 91/4/1
f 105/1/1 106/2/1 93/3/1 92/4/1
f 106/1/1 107/2/1 94/3/1 93/4/1
f 107/1/1 108/2/1 95/3/1 94/4/1
f 109/1/1 110/2/1 97/3/1 96/4/1
f 110/1/1 111/2/1 98/3/1 97/4/1
f 111/1/1 112/2/1 99/3/1 98/4/1
f 112/1/1 113/2/1 100/3/1 99/4/1
f 113/1/1 114/2/1 101/3/1 100/4/1
f 114/1/1 115/2/1 102/3/1 101/4/1
f 115/1/1 116/2/1 103/3/1 102/4/1
f 116/1/1 117/2/1 104/3/1 103/4/1
f 117/1/1 118/2/1 105/3/1 104/4/1
f 118/1/1 119/2/1 106/3/1 105/4/1
f 119/1/1 120/2/1 107/3/1 106/4/1
f 120/1/1 121/2/1 108/3/1 107/4/1
f 122/1/1 123/2/1 110/3/1 109/4/1
f 123/1/1 124/2/1 111/3/1 110/4/1
f 124/1/1 125/2/1 112/3/1 111/4/1
f 125/1/1 126/2/1 113/3/1 112/4/1
f 126/1/1 127/2/1 114/3/1 113/4/1
f 127/1/1 128/2/1 115/3/1 114/4/1
f 128/1/1 129/2/1 116/3/1 115/4/1
f 129/1/1 130/2/1 117/3/1 116/4/1
f 130/1/1 131/2/1 118/3/1 117/4/1
f 131/1/1 132/2/1 119/3/1 118/4/1
f 132/1/1 133/2/1 120/3/1 119/4/1
f 133/1/1 134/2/1 121/3/1 120/4/1
f 135/1/1 136/2/1 123/3/1 122/4/1
f 136/1/1 137/2/1 124/3/1 123/4/1
f 137/1/1 138/2/1 125/3/1 124/4/1
f 138/1/1 139/2/1 126/3/1 125/4/1
f 139/1/1 140/2/1 127/3/1 126/4/1
f 140/1/1 141/2/1 128/3/1 127/4/1
f 141/1/1 142/2/1 129/3/1 128/4/1
f 142/1/1 143/2/1 130/3/1 129/4/1
f 143/1/1 144/2/1 131/3/1 130/4/1
f 144/1/1 145/2/1 132/3/1 131/4/1
f 145/1/1 146/2/1 133/3/1 132/4/1
f 146/1/1 147/2/1 134/3/1 133/4/1
f 148/1/1 149/2/1 136/3/1 135/4/1
f 149/1/1 150/2/1 137/3/1 136/4/1
f 150/1/1 151/2/1 138/3/1 137/4/1
f 151/1/1 152/2/1 139/3/1 138/4/1
f 152/1/1 153/2/1 140/3/1 139/4/1
f 153/1/1 154/2/1 141/3/1 140/4/1
f 154/1/1 155/2/1 142/3/1 141/4/1
f 155/1/1 156/2/1 143/3/1 142/4/1
f 156/1/1 157/2/1 144/3/1 143/4/1
f 157/1/1 158/2/1 145/3/1 144/4/1
f 158/1/1 159/2/1 146/3/1 145/4/1
f 159/1/1 160/2/1 147/3/1 146/4/1
f 161/1/1 162/2/1 149/3/1 148/4/1
f 162/1/1 163/2/1 150/3/1 149/4/1
f 163/1/1 164/2/1 151/3/1 150/4/1
f 164/1/1 165/2/1 152/3/1 151/4/1
f 165/1/1 166/2/1 153/3/1 152/4/1
f 166/1/1 167/2/1 154/3/1 153/4/1
f 167/1/1 168/2/1 155/3/1 154/4/1
f 168/1/1 169/2/1 156/3/1 155/4/1
f 169/1/1 170/2/1 157/3/1 156/4/1
f 170/1/1 171/2/1 158/3/1 157/4/1
f 171/1/1 172/2/1 159/3/1 158/4/1
f 172/1/1 173/2/1 160/3/1 159/4/1
f 174/1/1 175/2/1 162/3/1 161/4/1
f 175/1/1 176/2/1 163/3/1 162/4/1
f 176/1/1 177/2/1 164/3/1 163/4/1
f 177/1/1 178/2/1 165/3/1 164/4/1
f 178/1/1 179/2/1 166/3/1 165/4/1
f 179/1/1 180/2/1 167/3/1 166/4/1
f 180/1/1 181/2/1 168/3/1 167/4/1
f 181/1/1 182/2/1 169/3/1 168/4/1
f 182/1/1 183/2/1 170/3/1 169/4/1
f 183/1/1 184/2/1 171/3/1 170/4/1
f 184/1/1 185/2/1 172/3/1 171/4/1
f 185/1/1 186/2/1 173/3/1 172/4/1
f 187/5/1 188/6/1 179/7/1 178/8/1
f 188/1/1 189/2/1 180/3/1 179/4/1
f 189/1/1 190/2/1 181/3/1 180/4/1
f 190/9/1 191/10/1 182/11/1 181/12/1

g mesh_0002
f 109/13/1 110/14/1 97/15/1 96/16/1
f 110/17/1 111/18/1 98/19/1 97/20/1
f 111/17/1 112/18/1 99/19/1 98/20/1
f 112/17/1 113/18/1 100/19/1 99/20/1
f 113/21/1 114/22/1 101/23/1 100/24/1
f 116/13/1 117/14/1 104/15/1 103/16/1
f 117/17/1 118/18/1 105/19/1 104/20/1
f 118/17/1 119/18/1 106/19/1 105/20/1
f 119/17/1 120/18/1 107/19/1 106/20/1
f 120/21/1 121/22/1 108/23/1 107/24/1
f 122/25/1 123/26/1 110/27/1 109/28/1
f 123/29/1 124/30/1 111/31/1 110/32/1
f 124/29/1 125/30/1 112/31/1 111/32/1
f 125/29/1 126/30/1 113/31/1 112/32/1
f 126/33/1 127/34/1 114/35/1 113/36/1
f 129/25/1 130/26/1 117/27/1 116/28/1
f 130/29/1 131/30/1 118/31/1 117/32/1
f 131/29/1 132/30/1 119/31/1 118/32/1
f 132/29/1 133/30/1 120/31/1 119/32/1
f 133/33/1 134/34/1 121/35/1 120/36/1
f 135/25/1 136/26/1 123/27/1 122/28/1
f 136/29/1 137/30/1 124/31/1 123/32/1
f 137/29/1 138/30/1 125/31/1 124/32/1
f 138/29/1 139/30/1 126/31/1 125/32/1
f 139/33/1 140/34/1 127/35/1 126/36/1
f 142/25/1 143/26/1 130/27/1 129/28/1
f 143/29/1 144/30/1 131/31/1 130/32/1
f 144/29/1 145/30/1 132/31/1 131/32/1
f 145/29/1 146/30/1 133/31/1 132/32/1
f 146/33/1 147/34/1 134/35/1 133/36/1
f 148/37/1 149/38/1 136/39/1 135/40/1
f 149/41/1 150/42/1 137/43/1 136/44/1
f 150/41/1 151/42/1 138/43/1 137/44/1
f 151/41/1 152/42/1 139/43/1 138/44/1
f 152/45/1 153/46/1 140/47/1 139/48/1
f 155/37/1 156/38/1 143/39/1 142/40/1
f 156/41/1 157/42/1 144/43/1 143/44/1
f 157/41/1 158/42/1 145/43/1 144/44/1
f 158/41/1 159/42/1 146/43/1 145/44/1
f 159/45/1 160/46/1 147/47/1 146/48/1
f 178/13/1 179/14/1 166/15/1 165/16/1
f 179/17/1 180/18/1 167/19/1 166/20/1
f 180/17/1 181/18/1 168/19/1 167/20/1
f 181/21/1 182/22/1 169/23/1 168/24/1
f 187/37/1 188/38/1 179/39/1 178/40/1
f 188/19/1 189/20/1 180/17/1 179/18/1
f 189/19/1 190/20/1 181/17/1 180/18/1
f 190/45/1 191/46/1 182/47/1 181/48/1

g mesh_0003
f 1/49/1 2/50/1 3/51/1 4/52/1
f 2/1/1 5/2/1 6/3/1 3/4/1
f 5/1/1 7/2/1 8/3/1 6/4/1
f 7/1/1 9/2/1 10/3/1 8/4/1
f 9/1/1 11/2/1 12/3/1 10/4/1
f 11/1/1 13/2/1 14/3/1 12/4/1
f 13/1/1 15/2/1 16/3/1 14/4/1
f 15/1/1 17/2/1 18/3/1 16/4/1
f 17/1/1 19/2/1 20/3/1 18/4/1
f 19/1/1 21/2/1 22/3/1 20/4/1
f 21/1/1 23/2/1 24/3/1 22/4/1
f 27/53/1 29/54/1 30/55/1 28/56/1
f 192/49/1 193/50/1 2/51/1 1/52/1
f 193/1/1 194/2/1 5/3/1 2/4/1
f 194/1/1 195/2/1 7/3/1 5/4/1
f 195/1/1 196/2/1 9/3/1 7/4/1
f 196/1/1 197/2/1 11/3/1 9/4/1
f 197/1/1 198/2/1 13/3/1 11/4/1
f 198/1/1 199/2/1 15/3/1 13/4/1
f 199/1/1 200/2/1 17/3/1 15/4/1
f 200/1/1 201/2/1 19/3/1 17/4/1
f 201/1/1 202/2/1 21/3/1 19/4/1
f 202/1/1 203/2/1 23/3/1 21/4/1
f 203/1/1 204/2/1 25/3/1 23/4/1
f 204/1/1 205/2/1 27/3/1 25/4/1
f 205/53/1 206/54/1 29/55/1 27/56/1
f 207/57/1 34/58/1 193/59/1 192/60/1
f 34/61/1 33/62/1 194/63/1 193/64/1
f 33/61/1 36/62/1 195/63/1 194/64/1
f 36/61/1 38/62/1 196/63/1 195/64/1
f 38/61/1 40/62/1 197/63/1 196/64/1
f 40/61/1 42/62/1 198/63/1 197/64/1
f 42/61/1 44/62/1 199/63/1 198/64/1
f 44/61/1 46/62/1 200/63/1 199/64/1
f 46/61/1 48/62/1 201/63/1 200/64/1
f 48/61/1 50/62/1 202/63/1 201/64/1
f 50/61/1 52/62/1 203/63/1 202/64/1
f 52/61/1 54/62/1 204/63/1 203/64/1
f 54/61/1 56/62/1 205/63/1 204/64/1
f 56/65/1 208/66/1 206/67/1 205/68/1
f 209/49/1 31/50/1 34/51/1 207/52/1
f 55/53/1 210/54/1 208/55/1 56/56/1
f 211/49/1 57/50/1 31/51/1 209/52/1
f 69/53/1 212/54/1 210/55/1 55/56/1
f 213/49/1 70/50/1 57/51/1 211/52/1
f 82/53/1 214/54/1 212/55/1 69/56/1
f 215/49/1 83/50/1 70/51/1 213/52/1
f 95/53/1 216/54/1 214/55/1 82/56/1
f 217/49/1 96/50/1 83/51/1 215/52/1
f 108/53/1 218/54/1 216/55/1 95/56/1
f 219/49/1 109/50/1 96/51/1 217/52/1
f 121/53/1 220/54/1 218/55/1 108/56/1
f 221/49/1 122/50/1 109/51/1 219/52/1
f 134/53/1 222/54/1 220/55/1 121/56/1
f 223/49/1 135/50/1 122/51/1 221/52/1
f 147/53/1 224/54/1 222/55/1 134/56/1
f 225/49/1 148/50/1 135/51/1 223/52/1
f 160/53/1 226/54/1 224/55/1 147/56/1
f 227/49/1 161/50/1 148/51/1 225/52/1
f 173/53/1 228/54/1 226/55/1 160/56/1
f 229/49/1 174/50/1 161/51/1 227/52/1
f 186/53/1 230/54/1 228/55/1 173/56/1
f 231/57/1 232/58/1 174/59/1 229/60/1
f 232/61/1 233/62/1 175/63/1 174/64/1
f 233/61/1 234/62/1 176/63/1 175/64/1
f 234/61/1 235/62/1 177/63/1 176/64/1
f 235/61/1 187/62/1 178/63/1 177/64/1
f 191/61/1 236/62/1 183/63/1 182/64/1
f 236/61/1 237/62/1 184/63/1 183/64/1
f 237/61/1 238/62/1 185/63/1 184/64/1
f 238/61/1 239/62/1 186/63/1 185/64/1
f 239/65/1 240/66/1 230/67/1 186/68/1

g mesh_0004
f 34/69/1 33/70/1 194/71/1 193/72/1
f 33/73/1 36/74/1 195/75/1 194/76/1
f 36/77/1 38/78/1 196/79/1 195/80/1
f 38/81/1 40/82/1 197/83/1 196/84/1
f 40/85/1 42/86/1 198/87/1 197/88/1
f 50/89/1 52/90/1 203/91/1 202/92/1
f 52/93/1 54/94/1 204/95/1 203/96/1
f 54/97/1 56/98/1 205/99/1 204/100/1
f 56/101/1 208/102/1 206/103/1 205/104/1
f 31/105/1 32/106/1 33/107/1 34/108/1
f 32/109/1 35/110/1 36/111/1 33/112/1
f 35/113/1 37/114/1 38/115/1 36/116/1
f 37/117/1 39/118/1 40/119/1 38/120/1
f 39/121/1 41/122/1 42/123/1 40/124/1
f 49/125/1 51/126/1 52/127/1 50/128/1
f 51/129/1 53/130/1 54/131/1 52/132/1
f 53/133/1 55/134/1 56/135/1 54/136/1
f 55/137/1 210/138/1 208/139/1 56/140/1
f 70/141/1 71/142/1 58/143/1 57/144/1
f 71/145/1 72/146/1 59/147/1 58/148/1
f 78/149/1 79/150/1 66/151/1 65/152/1
f 79/153/1 80/154/1 67/155/1 66/156/1
f 80/157/1 81/158/1 68/159/1 67/160/1
f 81/161/1 82/162/1 69/163/1 68/164/1
f 83/165/1 84/166/1 71/167/1 70/168/1
f 84/165/1 85/166/1 72/167/1 71/168/1
f 91/149/1 92/150/1 79/151/1 78/152/1
f 92/169/1 93/170/1 80/171/1 79/172/1
f 93/173/1 94/174/1 81/175/1 80/176/1
f 94/161/1 95/162/1 82/163/1 81/164/1
f 105/177/1 106/178/1 93/179/1 92/180/1
f 106/181/1 107/182/1 94/183/1 93/184/1
f 123/185/1 124/186/1 111/187/1 110/188/1
f 124/189/1 125/190/1 112/191/1 111/192/1
f 136/193/1 137/194/1 124/195/1 123/196/1
f 137/197/1 138/198/1 125/199/1 124/200/1

g mesh_0005
f 120/201/1 121/202/1 108/203/1 107/204/1
f 121/205/1 220/206/1 218/207/1 108/208/1
f 130/209/1 131/210/1 118/211/1 117/212/1
f 131/213/1 132/214/1 119/215/1 118/216/1
f 133/217/1 134/218/1 121/219/1 120/220/1
f 134/221/1 222/222/1 220/223/1 121/224/1
f 143/225/1 144/226/1 131/227/1 130/228/1
f 144/229/1 145/230/1 132/231/1 131/232/1
f 146/201/1 147/202/1 134/203/1 133/204/1
f 147/205/1 224/206/1 222/207/1 134/208/1
f 159/217/1 160/218/1 147/219/1 146/220/1
f 160/221/1 226/222/1 224/223/1 147/224/1
f 231/233/1 232/234/1 174/235/1 229/236/1
f 239/233/1 240/234/1 230/235/1 186/236/1

g mesh_0006
f 2/237/1 5/238/1 6/239/1 3/240/1
f 5/241/1 7/242/1 8/243/1 6/244/1
f 23/237/1 25/238/1 26/239/1 24/240/1
f 25/241/1 27/242/1 28/243/1 26/244/1
f 193/245/1 194/246/1 5/247/1 2/248/1
f 194/249/1 195/250/1 7/251/1 5/252/1
f 203/245/1 204/246/1 25/247/1 23/248/1
f 204/249/1 205/250/1 27/251/1 25/252/1

g mesh_0007
f 13/253/1 15/254/1 16/255/1 14/256/1
f 15/257/1 17/258/1 18/259/1 16/260/1
f 198/261/1 199/262/1 15/263/1 13/264/1
f 199/265/1 200/266/1 17/267/1 15/268/1

g mesh_0008
f 79/269/1 80/270/1 67/271/1 66/272/1
f 93/273/1 94/274/1 81/275/1 80/276/1
f 131/145/1 132/146/1 119/147/1 118/148/1

g mesh_0009
f 57/277/1 58/278/1 32/279/1 31/280/1

g mesh_0010
f 229/281/1 174/282/1 161/283/1 227/284/1
f 186/281/1 230/282/1 228/283/1 173/284/1

